<?xml version="1.0" encoding="iso-8859-1"?>
<!-- Generator: Adobe Illustrator 19.1.0, SVG Export Plug-In . SVG Version: 6.00 Build 0)  -->
<svg xmlns="http://www.w3.org/2000/svg" xmlns:xlink="http://www.w3.org/1999/xlink" version="1.1" id="Capa_1" x="0px" y="0px" viewBox="0 0 408.062 408.062" style="enable-background:new 0 0 408.062 408.062;" xml:space="preserve" width="25px" height="25px">
<g>
	<g id="Sun">
		<g>
			<linearGradient id="grad1" x1="0%" y1="0%" x2="100%" y2="0%">
				<stop offset="0%" style="stop-color:rgb(9, 218, 242);stop-opacity:1" />
				<stop offset="25%" style="stop-color:rgb(34, 19, 35);stop-opacity:1" />
				<stop offset="100%" style="stop-color:rgb(250, 255, 0);stop-opacity:1" />
			</linearGradient>

			<path d="M204.031,47.947c7.959,0,15.714,0.771,23.355,1.905h1.61l-24.965-49.84l-24.988,49.84h1.61     C188.317,48.718,196.072,47.947,204.031,47.947z M204.031,360.115c-7.959,0-15.714-0.771-23.355-1.905h-1.633l24.965,49.84     l24.965-49.84h-1.61C219.745,359.344,211.99,360.115,204.031,360.115z M49.84,229.008v-1.61     c-1.134-7.642-1.905-15.396-1.905-23.355s0.771-15.714,1.905-23.355v-1.633L0,204.042L49.84,229.008z M358.222,179.054v1.61     c1.134,7.642,1.905,15.396,1.905,23.355c0,7.959-0.771,15.714-1.905,23.355v1.61l49.84-24.965L358.222,179.054z M78.479,111.528     c4.603-6.213,9.546-12.245,15.17-17.868c5.623-5.623,11.655-10.567,17.868-15.17l1.134-1.134L59.749,59.76l17.573,52.901     L78.479,111.528z M329.561,296.557c-4.603,6.19-9.546,12.222-15.17,17.868c-5.623,5.623-11.655,10.567-17.868,15.17l-1.134,1.134     l52.901,17.573L330.717,295.4L329.561,296.557z M93.648,314.402c-5.623-5.623-10.567-11.655-15.17-17.868l-1.134-1.134     l-17.596,52.901l52.901-17.573l-1.134-1.134C105.303,324.969,99.272,320.026,93.648,314.402z M296.546,78.49     c6.19,4.603,12.222,9.546,17.868,15.17c5.646,5.623,10.567,11.655,15.17,17.868l1.134,1.134L348.29,59.76l-52.901,17.573     L296.546,78.49z M204.031,78.762c-69.068,0-125.303,56.212-125.303,125.303s56.212,125.303,125.303,125.303     c69.068,0,125.303-56.212,125.303-125.303C329.311,134.974,273.099,78.762,204.031,78.762z M204.031,306.579     c-56.529,0-102.514-45.985-102.514-102.514s45.985-102.514,102.514-102.514s102.514,45.985,102.514,102.514     S260.56,306.579,204.031,306.579z M204.144,158.76c-25.056,0-45.35,20.294-45.35,45.35s20.294,45.35,45.35,45.35     c25.056,0,45.35-20.294,45.35-45.35S229.178,158.76,204.144,158.76z" fill="#FFDA44"/>
		</g>
	</g>
</g>
<g>
</g>
<g>
</g>
<g>
</g>
<g>
</g>
<g>
</g>
<g>
</g>
<g>
</g>
<g>
</g>
<g>
</g>
<g>
</g>
<g>
</g>
<g>
</g>
<g>
</g>
<g>
</g>
<g>
</g>
</svg>
